<svg width="28" height="28" viewBox="0 0 28 28" fill="none" xmlns="http://www.w3.org/2000/svg">
<mask id="mask0_1_433" style="mask-type:alpha" maskUnits="userSpaceOnUse" x="0" y="0" width="28" height="28">
<path d="M0 0H28V28H0V0Z" fill="white"/>
</mask>
<g mask="url(#mask0_1_433)">
<mask id="mask1_1_433" style="mask-type:alpha" maskUnits="userSpaceOnUse" x="2" y="2" width="24" height="24">
<path d="M2 2H26V26H2V2Z" fill="#D9D9D9"/>
</mask>
<g mask="url(#mask1_1_433)">
<path d="M16.5231 23.6H7.29231C5.26154 23.6 3.60001 22.2154 3.60001 20.5231V6.6769C3.60001 4.98459 5.26154 3.59998 7.29231 3.59998H16.5231C18.5539 3.59998 20.2154 4.98459 20.2154 6.6769V20.5231C20.2154 22.2154 18.5539 23.6 16.5231 23.6Z" fill="#191439"/>
<path fill-rule="evenodd" clip-rule="evenodd" d="M7.29231 4.34998C5.54191 4.34998 4.35001 5.52103 4.35001 6.6769V20.5231C4.35001 21.6789 5.54191 22.85 7.29231 22.85H16.5231C18.2735 22.85 19.4654 21.6789 19.4654 20.5231V6.6769C19.4654 5.52103 18.2735 4.34998 16.5231 4.34998H7.29231ZM2.85001 6.6769C2.85001 4.44815 4.98118 2.84998 7.29231 2.84998H16.5231C18.8342 2.84998 20.9654 4.44815 20.9654 6.6769V20.5231C20.9654 22.7518 18.8342 24.35 16.5231 24.35H7.29231C4.98118 24.35 2.85001 22.7518 2.85001 20.5231V6.6769Z" fill="#191439"/>
<path fill-rule="evenodd" clip-rule="evenodd" d="M19.6123 6.47724C19.8585 6.14414 20.3281 6.07368 20.6612 6.31988L23.6578 8.53465C25.1447 9.59997 25.5224 11.867 24.6689 13.5418L20.8909 21.372C20.7109 21.7451 20.2626 21.9016 19.8895 21.7216C19.5165 21.5416 19.36 21.0932 19.54 20.7202L23.3217 12.8822L23.3298 12.866C23.9102 11.7339 23.5684 10.3132 22.7813 9.75193L22.771 9.74454L22.771 9.74445L19.7697 7.52616C19.4366 7.27997 19.3661 6.81035 19.6123 6.47724Z" fill="#191439"/>
<path d="M15.025 18H8.97501C8.21562 18 7.60001 17.449 7.60001 16.7692C7.60001 14.7603 10.9 14.8 12 14.8C13.1 14.8 16.4 14.7603 16.4 16.7692C16.4 17.449 15.7844 18 15.025 18Z" fill="white"/>
<path d="M12 14C13.5464 14 14.8 12.7464 14.8 11.2C14.8 9.65357 13.5464 8.39996 12 8.39996C10.4536 8.39996 9.20001 9.65357 9.20001 11.2C9.20001 12.7464 10.4536 14 12 14Z" fill="white"/>
</g>
</g>
</svg>
