<svg width="28" height="28" viewBox="0 0 28 28" fill="none" xmlns="http://www.w3.org/2000/svg">
<mask id="mask0_1_435" style="mask-type:alpha" maskUnits="userSpaceOnUse" x="0" y="0" width="28" height="28">
<path d="M0 0H28V28H0V0Z" fill="#FFC300"/>
</mask>
<g mask="url(#mask0_1_435)">
<path fill-rule="evenodd" clip-rule="evenodd" d="M13.2 3.45001C18.5848 3.45001 22.95 7.81523 22.95 13.2C22.95 14.9782 22.4752 16.6413 21.6465 18.074C21.48 18.3618 21.422 18.6996 21.4828 19.0264L22.0448 22.0448L19.0264 21.4829C18.6996 21.422 18.3618 21.48 18.074 21.6465C16.6413 22.4752 14.9782 22.95 13.2 22.95C7.81528 22.95 3.45 18.5847 3.45 13.2C3.45 7.81524 7.81527 3.45001 13.2 3.45001ZM24.45 13.2C24.45 6.98681 19.4132 1.95001 13.2 1.95001C6.98685 1.95001 1.95 6.98681 1.95 13.2C1.95 19.4132 6.98685 24.45 13.2 24.45C15.2347 24.45 17.1436 23.9097 18.7907 22.9647L22.8449 23.7196C23.088 23.7648 23.3377 23.6874 23.5125 23.5126C23.6874 23.3377 23.7648 23.088 23.7195 22.8449L22.9647 18.7907C23.9097 17.1436 24.45 15.2347 24.45 13.2ZM18.7518 22.9575C18.7519 22.9575 18.752 22.9575 18.752 22.9576L18.7518 22.9575Z" fill="#191439"/>
<circle cx="9.25" cy="13.25" r="1.25" fill="#191439"/>
<circle cx="13.25" cy="13.25" r="1.25" fill="#191439"/>
<circle cx="17.25" cy="13.25" r="1.25" fill="#191439"/>
</g>
</svg>
