<svg width="22" height="23" viewBox="0 0 22 23" fill="none" xmlns="http://www.w3.org/2000/svg">
<path fill-rule="evenodd" clip-rule="evenodd" d="M3.04942 17.0713C2.48841 17.5502 2.14996 18.1645 2.14996 19.0213C2.14996 20.0141 3.07699 20.9565 4.39996 20.9565H17.6C18.9229 20.9565 19.85 20.0141 19.85 19.0213C19.85 18.1645 19.5115 17.5502 18.9505 17.0713C18.3628 16.5695 17.5141 16.2066 16.5177 15.9569C14.5875 15.4732 12.3667 15.4743 11.1211 15.4748C11.0796 15.4748 11.0392 15.4749 11 15.4749C10.9607 15.4749 10.9203 15.4748 10.8789 15.4748C9.63327 15.4743 7.41247 15.4732 5.48226 15.9569C4.48581 16.2066 3.63713 16.5695 3.04942 17.0713ZM10.8493 13.9748C10.9017 13.9748 10.9519 13.9749 11 13.9749C11.048 13.9749 11.0983 13.9748 11.1506 13.9748C12.384 13.9737 14.7665 13.9717 16.8823 14.5019C17.9858 14.7784 19.0871 15.2156 19.9244 15.9304C20.7884 16.668 21.35 17.6865 21.35 19.0213C21.35 20.9945 19.5907 22.4565 17.6 22.4565H4.39996C2.40923 22.4565 0.649963 20.9945 0.649963 19.0213C0.649963 17.6865 1.21152 16.668 2.07551 15.9304C2.9128 15.2156 4.01412 14.7784 5.11766 14.5019C7.23347 13.9717 9.61592 13.9737 10.8493 13.9748Z" fill="#191439"/>
<path fill-rule="evenodd" clip-rule="evenodd" d="M4.64996 6.09999C4.64996 2.75866 7.35864 0.0499878 10.7 0.0499878C14.0412 0.0499878 16.75 2.75866 16.75 6.09999C16.75 9.44132 14.0412 12.15 10.7 12.15C7.35864 12.15 4.64996 9.44131 4.64996 6.09999ZM10.7 1.54999C8.18707 1.54999 6.14996 3.58709 6.14996 6.09999C6.14996 8.61288 8.18707 10.65 10.7 10.65C13.2128 10.65 15.25 8.61288 15.25 6.09999C15.25 3.5871 13.2128 1.54999 10.7 1.54999Z" fill="#191439"/>
</svg>
