<svg width="21" height="19" viewBox="0 0 21 19" fill="none" xmlns="http://www.w3.org/2000/svg">
<path fill-rule="evenodd" clip-rule="evenodd" d="M3.86129 0.969501C4.53579 0.660656 5.26287 0.5 6.00002 0.5C6.73718 0.5 7.46425 0.660656 8.13875 0.969501C8.8129 1.27819 9.4185 1.72744 9.9239 2.28617C10.2322 2.62699 10.7678 2.62699 11.0761 2.28617C12.0979 1.15663 13.5068 0.50001 15 0.50001C16.4932 0.50001 17.9021 1.15663 18.9239 2.28617C19.9427 3.41237 20.5 4.92003 20.5 6.47349C20.5 8.02701 19.9427 9.53467 18.9239 10.6608L12.7257 17.5124C11.5346 18.8292 9.4654 18.8292 8.27429 17.5124L2.07613 10.6608C1.57086 10.1023 1.17474 9.44455 0.90602 8.72744C0.63731 8.01032 0.5 7.24469 0.5 6.47349C0.5 5.70231 0.63731 4.9367 0.90602 4.2196C1.17474 3.50244 1.57086 2.8447 2.07613 2.28617C2.58157 1.72744 3.18716 1.27819 3.86129 0.969501Z" fill="url(#paint0_linear_968_1631)"/>
<defs>
<linearGradient id="paint0_linear_968_1631" x1="10.5" y1="19.5" x2="10.5" y2="0.5" gradientUnits="userSpaceOnUse">
<stop offset="0.140625" stop-color="#FE8FEA"/>
<stop offset="1" stop-color="#FF3F8F"/>
</linearGradient>
</defs>
</svg>
