<svg width="21" height="21" viewBox="0 0 21 21" fill="none" xmlns="http://www.w3.org/2000/svg">
<path fill-rule="evenodd" clip-rule="evenodd" d="M13.9995 9.10039C13.9995 8.71379 13.7647 8.40039 13.475 8.40039H6.12408C5.83439 8.40039 5.59955 8.71379 5.59955 9.10039C5.59955 9.48699 5.83439 9.80039 6.12408 9.80039H13.475C13.7647 9.80039 13.9995 9.48699 13.9995 9.10039Z" fill="white"/>
<path fill-rule="evenodd" clip-rule="evenodd" d="M11.2 12.6001C11.2 12.2135 10.9326 11.9001 10.6027 11.9001H6.19724C5.86737 11.9001 5.59996 12.2135 5.59996 12.6001C5.59996 12.9867 5.86737 13.3001 6.19724 13.3001H10.6027C10.9326 13.3001 11.2 12.9867 11.2 12.6001Z" fill="white"/>
<path fill-rule="evenodd" clip-rule="evenodd" d="M21 10.5C21 4.70101 16.299 0 10.5 0C4.70106 0 0 4.70101 0 10.5C0 16.2989 4.70106 21 10.5 21C12.335 21 14.0617 20.5287 15.5637 19.7004L19.8261 20.494C20.0117 20.5285 20.2024 20.4694 20.3359 20.3359C20.4694 20.2024 20.5285 20.0117 20.494 19.8261L19.7004 15.5637C20.5288 14.0616 21 12.335 21 10.5Z" fill="white"/>
<circle cx="6.25" cy="10.25" r="1.25" fill="#191439"/>
<circle cx="10.25" cy="10.25" r="1.25" fill="#191439"/>
<circle cx="14.25" cy="10.25" r="1.25" fill="#191439"/>
</svg>
