<svg width="32" height="32" viewBox="0 0 32 32" fill="none" xmlns="http://www.w3.org/2000/svg">
<circle cx="16" cy="16" r="16" fill="url(#paint0_radial_1_397)"/>
<path d="M18.5166 10C19.3926 10 20.1034 10.7647 20.1035 11.708V12.209L22.9297 10.9756C23.1568 10.876 23.4043 10.8367 23.6494 10.8613C23.8944 10.886 24.1301 10.9733 24.335 11.1162C24.539 11.2589 24.7063 11.4522 24.8223 11.6787C24.9382 11.9054 24.9995 12.1589 25 12.416V18.6826C24.9995 18.9398 24.9382 19.1932 24.8223 19.4199C24.7063 19.6465 24.539 19.8397 24.335 19.9824C24.0909 20.1579 23.8008 20.2511 23.5049 20.249C23.3069 20.2497 23.111 20.2064 22.9297 20.123L20.1035 18.8896V20.249C20.1035 21.1924 19.3926 21.957 18.5166 21.957H10.5859C9.71003 21.9569 9 21.1923 9 20.249V11.708C9.00009 10.7648 9.71008 10.0001 10.5859 10H18.5166Z" fill="white"/>
<path fill-rule="evenodd" clip-rule="evenodd" d="M17.1741 15.4302L14.3339 13.5779C13.8584 13.268 13.2667 13.6601 13.2667 14.284V17.9884C13.2667 18.6131 13.8584 19.0044 14.3339 18.6945L17.1741 16.8431C17.6532 16.5308 17.6532 15.7426 17.1741 15.4302Z" fill="#70CDCC"/>
<defs>
<radialGradient id="paint0_radial_1_397" cx="0" cy="0" r="1" gradientUnits="userSpaceOnUse" gradientTransform="translate(18 32) rotate(-89.076) scale(31.004)">
<stop offset="0.125" stop-color="#8DEAE4"/>
<stop offset="1" stop-color="#5DBDC1"/>
</radialGradient>
</defs>
</svg>
