<svg width="28" height="28" viewBox="0 0 28 28" fill="none" xmlns="http://www.w3.org/2000/svg">
<mask id="mask0_1_436" style="mask-type:alpha" maskUnits="userSpaceOnUse" x="0" y="0" width="28" height="28">
<path d="M0 0H28V28H0V0Z" fill="#FFC300"/>
</mask>
<g mask="url(#mask0_1_436)">
<path fill-rule="evenodd" clip-rule="evenodd" d="M21.1653 19.6522C21.3179 19.9629 21.46 20.267 21.5914 20.5636C22.1884 21.9121 22.5802 23.1464 22.6928 24.1703C22.801 25.1541 22.6722 26.1772 21.9119 26.7878C21.1515 27.3984 20.1178 27.3088 19.1725 26.9971C18.1887 26.6728 17.0565 26.0331 15.8549 25.17C13.4428 23.4372 10.6072 20.6986 7.90036 17.3702C5.19354 14.0418 3.09407 10.712 1.89539 8.00481C1.2983 6.65631 0.906576 5.42207 0.793932 4.39813C0.685706 3.41434 0.814505 2.39125 1.57488 1.78067C2.33525 1.17009 3.36895 1.25969 4.31423 1.57133C5.29808 1.89568 6.43028 2.53532 7.63181 3.39845C8.92885 4.3302 10.3483 5.55276 11.8044 7.00146L9.82393 7.17162C8.74534 6.16003 7.70742 5.29676 6.75155 4.6101C5.60896 3.7893 4.61923 3.24683 3.84225 2.99068C3.02669 2.72181 2.66065 2.83251 2.52129 2.94441C2.38193 3.05632 2.19618 3.38871 2.28955 4.23749C2.37851 5.04613 2.70454 6.12156 3.27234 7.40392C4.40341 9.95844 6.42221 13.1752 9.06995 16.431C11.7177 19.6868 14.4591 22.3233 16.7352 23.9583C17.8778 24.7791 18.8675 25.3216 19.6445 25.5778C20.4601 25.8466 20.8261 25.7359 20.9655 25.624C21.1048 25.5121 21.2906 25.1797 21.1972 24.331C21.1082 23.5223 20.7822 22.4469 20.2144 21.1645C20.1014 20.9093 19.9795 20.6475 19.8491 20.3797L21.1653 19.6522Z" fill="#191439"/>
<path fill-rule="evenodd" clip-rule="evenodd" d="M25.0853 8.89336L21.2992 10.546C21.1492 10.6106 21.0208 10.7202 20.9302 10.8611C20.8396 11.0021 20.7908 11.1679 20.79 11.3379V16.5024C20.7908 16.6723 20.8396 16.8382 20.9302 16.9791C21.0208 17.12 21.1492 17.2297 21.2992 17.2943L25.0853 18.9469C25.2846 19.0385 25.5001 19.0854 25.7177 19.0846C26.043 19.0869 26.3611 18.9848 26.6293 18.792C26.8538 18.635 27.0379 18.4226 27.1653 18.1734C27.2928 17.9242 27.3598 17.6459 27.3603 17.3631V10.4771C27.3598 10.1944 27.2928 9.91609 27.1653 9.66689C27.0379 9.41768 26.8538 9.20522 26.6293 9.04829C26.4041 8.89117 26.1452 8.79482 25.8759 8.76779C25.6065 8.74076 25.3349 8.78389 25.0853 8.89336ZM25.8603 10.479C25.8601 10.4307 25.8484 10.3862 25.8299 10.35C25.8117 10.3144 25.7894 10.2915 25.7705 10.2781C25.7522 10.2655 25.7369 10.2614 25.7261 10.2603C25.7154 10.2592 25.7027 10.2605 25.6877 10.2671L25.6854 10.2681L22.29 11.7502V16.0901L25.6987 17.578L25.7118 17.584L25.7201 17.5846L25.7281 17.5847C25.73 17.5847 25.7327 17.5844 25.7364 17.5832C25.7402 17.582 25.7462 17.5794 25.7539 17.5739L25.7618 17.5682L25.7698 17.5627C25.7888 17.5494 25.8115 17.5263 25.8299 17.4902C25.8484 17.4541 25.8601 17.4096 25.8603 17.3613V10.479Z" fill="#191439"/>
<path fill-rule="evenodd" clip-rule="evenodd" d="M15.8786 13.207L12.5502 11.1232C11.993 10.7746 11.2996 11.2157 11.2996 11.9176V16.085C11.2996 16.7878 11.993 17.228 12.5502 16.8794L15.8786 14.7966C16.44 14.4452 16.44 13.5584 15.8786 13.207Z" fill="#191439"/>
<path fill-rule="evenodd" clip-rule="evenodd" d="M12.7872 22.1739L18.7239 22.2088L18.9806 22.1999C20.6752 22.0749 22.0112 20.6604 22.0112 18.9339L22.0112 17.606L21.3025 17.2967C21.1526 17.2321 21.0242 17.1225 20.9335 16.9816C20.8429 16.8406 20.7941 16.6748 20.7933 16.5048L20.7933 11.3403C20.7941 11.1704 20.8429 11.0045 20.9335 10.8636C21.0242 10.7227 21.1526 10.613 21.3025 10.5484L22.0112 10.2391L22.0112 9.0292C22.0112 7.22051 20.5449 5.75427 18.7362 5.75427L7.24277 5.75427C5.43408 5.75427 3.96784 7.22051 3.96784 9.0292L3.96784 11.903C4.42843 12.6151 4.92929 13.3407 5.46784 14.0743L5.46784 9.0292C5.46784 8.04893 6.2625 7.25427 7.24277 7.25427L18.7362 7.25427C19.7165 7.25427 20.5112 8.04893 20.5112 9.0292L20.5112 18.9339C20.5112 19.8606 19.8001 20.6226 18.8949 20.702L18.7022 20.7087L11.1899 20.6645C11.7212 21.1875 12.2544 21.6912 12.7872 22.1739ZM10.3988 22.1598L7.23047 22.1412C5.42659 22.1344 3.96784 20.6702 3.96784 18.8663L3.96784 14.8266C4.44047 15.4742 4.94108 16.1268 5.46784 16.7809L5.46784 18.8663C5.46784 19.8439 6.25845 20.6375 7.2361 20.6412L7.2393 20.6412L8.88555 20.6509C9.38676 21.1698 9.89187 21.6733 10.3988 22.1598Z" fill="#191439"/>
</g>
</svg>
