<svg width="24" height="25" viewBox="0 0 24 25" fill="none" xmlns="http://www.w3.org/2000/svg">
<g clip-path="url(#clip0_968_2353)">
<path d="M12 23.1667C18.2592 23.1667 23.3333 18.0926 23.3333 11.8333C23.3333 5.5741 18.2592 0.5 12 0.5C5.74076 0.5 0.666656 5.5741 0.666656 11.8333C0.666656 18.0926 5.74076 23.1667 12 23.1667Z" fill="#FFCC4D"/>
<path d="M12 21.1667C17.1546 21.1667 21.3333 16.988 21.3333 11.8333C21.3333 6.67868 17.1546 2.5 12 2.5C6.84533 2.5 2.66666 6.67868 2.66666 11.8333C2.66666 16.988 6.84533 21.1667 12 21.1667Z" fill="#F8A021"/>
<path d="M11.6437 5.59815C11.7922 5.30724 12.2078 5.30725 12.3563 5.59815L14.0059 8.83056C14.064 8.94445 14.1731 9.02369 14.2994 9.04377L17.8833 9.61377C18.2059 9.66507 18.3343 10.0604 18.1035 10.2915L15.5391 12.8592C15.4487 12.9497 15.4071 13.0779 15.427 13.2042L15.9924 16.7889C16.0433 17.1115 15.707 17.3558 15.4159 17.2077L12.1814 15.5623C12.0674 15.5043 11.9326 15.5043 11.8186 15.5623L8.5841 17.2077C8.29301 17.3558 7.95674 17.1115 8.00762 16.7889L8.57302 13.2042C8.59295 13.0779 8.55129 12.9497 8.46093 12.8592L5.89648 10.2915C5.66569 10.0604 5.79414 9.66507 6.11668 9.61377L9.70064 9.04377C9.82692 9.02369 9.93598 8.94445 9.9941 8.83056L11.6437 5.59815Z" fill="#FFE29B"/>
</g>
<defs>
<clipPath id="clip0_968_2353">
<rect width="24" height="24" fill="white" transform="translate(0 0.5)"/>
</clipPath>
</defs>
</svg>
